<svg xmlns="http://www.w3.org/2000/svg" width="16" height="16" viewBox="0 0 16 16" fill="none">
    <path d="M13.2649 6.26505L8.26492 11.265C8.19461 11.3353 8.0993 11.3747 7.99992 11.3747C7.90055 11.3747 7.80524 11.3353 7.73492 11.265L2.73492 6.26505C2.66868 6.19396 2.63262 6.09994 2.63434 6.00278C2.63605 5.90563 2.67541 5.81294 2.74411 5.74423C2.81282 5.67553 2.90551 5.63617 3.00266 5.63446C3.09981 5.63274 3.19384 5.66881 3.26492 5.73505L7.99992 10.4694L12.7349 5.73505C12.806 5.66881 12.9 5.63274 12.9972 5.63446C13.0943 5.63617 13.187 5.67553 13.2557 5.74423C13.3244 5.81294 13.3638 5.90563 13.3655 6.00278C13.3672 6.09994 13.3312 6.19396 13.2649 6.26505Z" fill="white"/>
  </svg>