<svg xmlns="http://www.w3.org/2000/svg" width="84" height="61" viewBox="0 0 84 61" fill="none">
    <path d="M43.201 14.0695C43.0215 14.5671 43.3743 15.0513 43.906 15.1824L43.9855 15.202L43.9881 15.1995C44.4943 15.2872 45.0288 15.0454 45.1916 14.5912C46.6157 10.6358 51.1165 7.84915 56.1591 7.84915C56.7061 7.84915 57.2005 7.47746 57.2005 6.96234C57.2005 6.44719 56.7061 6.07552 56.1591 6.07552C50.0356 6.07552 44.8656 9.44604 43.201 14.0695ZM43.201 14.0695L43.3421 14.1204M43.201 14.0695C43.201 14.0696 43.201 14.0696 43.2009 14.0696L43.3421 14.1204M43.3421 14.1204C43.2014 14.5104 43.4701 14.9204 43.9419 15.0367L43.3421 14.1204Z" fill="#0A6A69" stroke="#F9FFF9" stroke-width="0.3"/>
    <path d="M68.6379 43.066H63.2896C62.7974 43.066 62.3982 42.736 62.3982 42.3292C62.3982 41.9223 62.7974 41.5923 63.2896 41.5923H68.6379C76.0103 41.5923 82.0088 36.6341 82.0088 30.5403C82.0088 24.4465 76.0103 19.4882 68.6379 19.4882H68.5093C68.2508 19.4882 68.005 19.3956 67.8356 19.2341C67.6663 19.0725 67.5899 18.8583 67.6268 18.6467C67.7064 18.1878 67.7465 17.7268 67.7465 17.2779C67.7465 11.9966 62.5477 7.69934 56.1583 7.69934C53.6726 7.69934 51.3021 8.34141 49.3028 9.5566C48.8634 9.82343 48.2395 9.70502 47.9854 9.30556C42.3232 0.393426 27.5341 -0.803382 19.8666 6.9494C16.6367 10.2155 15.3676 14.4642 16.3845 18.6052C16.4966 19.0625 16.0732 19.4888 15.511 19.4888H15.1538C7.78136 19.4888 1.78287 24.447 1.78287 30.5409C1.78287 36.6347 7.78136 41.5929 15.1538 41.5929H20.502C20.9942 41.5929 21.3935 41.9229 21.3935 42.3297C21.3935 42.7365 20.9942 43.0665 20.502 43.0665H15.1538C6.79816 43.0665 0 37.4473 0 30.5408C0 23.828 6.4218 18.3314 14.454 18.0283C13.6995 13.7321 15.1423 9.39868 18.4863 6.01682C26.6953 -2.28431 42.4274 -1.35386 49.0777 7.9025C51.1993 6.80308 53.627 6.22633 56.158 6.22633C63.8991 6.22633 70.0332 11.6724 69.4965 18.0352C77.4547 18.4041 83.7912 23.8717 83.7912 30.5403C83.7912 37.4473 76.9931 43.066 68.6375 43.066L68.6379 43.066Z" fill="#0A6A69"/>
    <path d="M19.3402 41.913C19.3402 52.1783 29.4326 60.4833 41.7753 60.4833C54.1183 60.4833 64.2104 52.1782 64.2104 41.913C64.2104 31.6476 54.1183 23.3427 41.7753 23.3427C29.4324 23.3427 19.3402 31.6478 19.3402 41.913ZM21.4234 41.913C21.4234 32.6772 30.5254 25.1166 41.7753 25.1166C53.025 25.1166 62.1272 32.6771 62.1272 41.913C62.1272 51.1487 53.025 58.7093 41.7753 58.7093C30.5256 58.7093 21.4234 51.1489 21.4234 41.913Z" fill="#0A6A69" stroke="#F9FFF9" stroke-width="0.3"/>
    <path d="M41.3832 49.3284C41.3832 49.7346 41.7706 50.0178 42.1858 50.0178C42.6009 50.0178 42.9884 49.735 42.9884 49.3284V35.3032C42.9884 34.8971 42.601 34.6138 42.1858 34.6138C41.7706 34.6138 41.3832 34.8971 41.3832 35.3032V49.3284Z" fill="#0A6A69" stroke="#483EA8" stroke-width="0.3"/>
    <path d="M36.4072 40.117C36.7175 40.3735 37.2112 40.3737 37.5213 40.117C37.5213 40.117 37.5214 40.1169 37.5214 40.1169L42.185 36.262L46.8488 40.117C47.0064 40.2473 47.2088 40.3093 47.4058 40.3093L36.4072 40.117ZM36.4072 40.117C36.248 39.9854 36.1615 39.8062 36.1615 39.6199M36.4072 40.117L36.1615 39.6199M36.1615 39.6199C36.1615 39.4336 36.248 39.2544 36.4072 39.1228L41.6278 34.8076C41.9379 34.5508 42.4317 34.5509 42.742 34.8075L47.9628 39.1228C48.122 39.2544 48.2085 39.4336 48.2085 39.6199C48.2085 39.8062 48.122 39.9854 47.9628 40.117C47.805 40.2478 47.6024 40.3093 47.4058 40.3093L36.1615 39.6199Z" fill="#0A6A69" stroke="#483EA8" stroke-width="0.3"/>
  </svg>