<svg width="198" height="36" viewBox="0 0 198 36" fill="none" xmlns="http://www.w3.org/2000/svg">
    <rect width="198" height="36" rx="5" fill="#2B4D53"/>
    <path d="M39.625 11.125H28.375C28.0435 11.125 27.7255 11.2567 27.4911 11.4911C27.2567 11.7255 27.125 12.0435 27.125 12.375V23.625C27.125 23.9565 27.2567 24.2745 27.4911 24.5089C27.7255 24.7433 28.0435 24.875 28.375 24.875H39.625C39.9565 24.875 40.2745 24.7433 40.5089 24.5089C40.7433 24.2745 40.875 23.9565 40.875 23.625V12.375C40.875 12.0435 40.7433 11.7255 40.5089 11.4911C40.2745 11.2567 39.9565 11.125 39.625 11.125ZM39.625 17.375H34.625V12.375H39.625V17.375ZM33.375 12.375V17.375H28.375V12.375H33.375ZM28.375 18.625H33.375V23.625H28.375V18.625ZM39.625 23.625H34.625V18.625H39.625V23.625Z" fill="white"/>
    <path d="M60.596 12.742V22.5H59.322V18.076H54.352V22.5H53.078V12.742H54.352V17.026H59.322V12.742H60.596ZM66.1174 22.626C65.3987 22.626 64.7454 22.4627 64.1574 22.136C63.5787 21.8093 63.1214 21.3473 62.7854 20.75C62.4587 20.1433 62.2954 19.4433 62.2954 18.65C62.2954 17.866 62.4634 17.1753 62.7994 16.578C63.1447 15.9713 63.6114 15.5093 64.1994 15.192C64.7874 14.8653 65.4454 14.702 66.1734 14.702C66.9014 14.702 67.5594 14.8653 68.1474 15.192C68.7354 15.5093 69.1974 15.9667 69.5334 16.564C69.8787 17.1613 70.0514 17.8567 70.0514 18.65C70.0514 19.4433 69.874 20.1433 69.5194 20.75C69.174 21.3473 68.7027 21.8093 68.1054 22.136C67.508 22.4627 66.8454 22.626 66.1174 22.626ZM66.1174 21.506C66.5747 21.506 67.004 21.3987 67.4054 21.184C67.8067 20.9693 68.1287 20.6473 68.3714 20.218C68.6234 19.7887 68.7494 19.266 68.7494 18.65C68.7494 18.034 68.628 17.5113 68.3854 17.082C68.1427 16.6527 67.8254 16.3353 67.4334 16.13C67.0414 15.9153 66.6167 15.808 66.1594 15.808C65.6927 15.808 65.2634 15.9153 64.8714 16.13C64.4887 16.3353 64.1807 16.6527 63.9474 17.082C63.714 17.5113 63.5974 18.034 63.5974 18.65C63.5974 19.2753 63.7094 19.8027 63.9334 20.232C64.1667 20.6613 64.4747 20.9833 64.8574 21.198C65.24 21.4033 65.66 21.506 66.1174 21.506ZM80.9524 14.688C81.5498 14.688 82.0818 14.814 82.5484 15.066C83.0151 15.3087 83.3838 15.6773 83.6544 16.172C83.9251 16.6667 84.0604 17.2687 84.0604 17.978V22.5H82.8004V18.16C82.8004 17.3947 82.6091 16.8113 82.2264 16.41C81.8531 15.9993 81.3444 15.794 80.7004 15.794C80.0378 15.794 79.5104 16.0087 79.1184 16.438C78.7264 16.858 78.5304 17.4693 78.5304 18.272V22.5H77.2704V18.16C77.2704 17.3947 77.0791 16.8113 76.6964 16.41C76.3231 15.9993 75.8144 15.794 75.1704 15.794C74.5078 15.794 73.9804 16.0087 73.5884 16.438C73.1964 16.858 73.0004 17.4693 73.0004 18.272V22.5H71.7264V14.828H73.0004V15.934C73.2524 15.5327 73.5884 15.2247 74.0084 15.01C74.4378 14.7953 74.9091 14.688 75.4224 14.688C76.0664 14.688 76.6358 14.8327 77.1304 15.122C77.6251 15.4113 77.9938 15.836 78.2364 16.396C78.4511 15.8547 78.8058 15.4347 79.3004 15.136C79.7951 14.8373 80.3458 14.688 80.9524 14.688ZM93.1503 18.37C93.1503 18.6127 93.1363 18.8693 93.1083 19.14H86.9763C87.0229 19.896 87.2796 20.4887 87.7463 20.918C88.2223 21.338 88.7963 21.548 89.4683 21.548C90.0189 21.548 90.4763 21.422 90.8403 21.17C91.2136 20.9087 91.4749 20.5633 91.6243 20.134H92.9963C92.7909 20.8713 92.3803 21.4733 91.7643 21.94C91.1483 22.3973 90.3829 22.626 89.4683 22.626C88.7403 22.626 88.0869 22.4627 87.5083 22.136C86.9389 21.8093 86.4909 21.3473 86.1643 20.75C85.8376 20.1433 85.6743 19.4433 85.6743 18.65C85.6743 17.8567 85.8329 17.1613 86.1503 16.564C86.4676 15.9667 86.9109 15.5093 87.4803 15.192C88.0589 14.8653 88.7216 14.702 89.4683 14.702C90.1963 14.702 90.8403 14.8607 91.4003 15.178C91.9603 15.4953 92.3896 15.934 92.6883 16.494C92.9963 17.0447 93.1503 17.67 93.1503 18.37ZM91.8343 18.104C91.8343 17.6187 91.7269 17.2033 91.5123 16.858C91.2976 16.5033 91.0036 16.2373 90.6303 16.06C90.2663 15.8733 89.8603 15.78 89.4123 15.78C88.7683 15.78 88.2176 15.9853 87.7603 16.396C87.3123 16.8067 87.0556 17.376 86.9903 18.104H91.8343Z" fill="white"/>
    </svg>
    