<svg xmlns="http://www.w3.org/2000/svg" width="16" height="16" viewBox="0 0 16 16" fill="none">
    <path d="M13 9C13.0012 9.20386 12.9393 9.40311 12.8227 9.57033C12.7061 9.73754 12.5405 9.86451 12.3487 9.93375L9.1206 11.1213L7.9331 14.3469C7.86278 14.5379 7.73555 14.7028 7.56858 14.8193C7.40161 14.9357 7.20293 14.9982 6.99935 14.9982C6.79578 14.9982 6.5971 14.9357 6.43013 14.8193C6.26316 14.7028 6.13593 14.5379 6.0656 14.3469L4.87498 11.125L1.64873 9.9375C1.45768 9.86718 1.29281 9.73995 1.17634 9.57298C1.05988 9.406 0.997437 9.20733 0.997437 9.00375C0.997437 8.80017 1.05988 8.6015 1.17634 8.43452C1.29281 8.26755 1.45768 8.14032 1.64873 8.07L4.87685 6.8825L6.06435 3.65687C6.13468 3.46583 6.26191 3.30095 6.42888 3.18449C6.59585 3.06803 6.79453 3.00558 6.9981 3.00558C7.20168 3.00558 7.40036 3.06803 7.56733 3.18449C7.7343 3.30095 7.86153 3.46583 7.93185 3.65687L9.11935 6.885L12.345 8.0725C12.5364 8.14077 12.7021 8.26651 12.8193 8.43253C12.9366 8.59856 12.9997 8.79675 13 9ZM9.49998 3H10.5V4C10.5 4.13261 10.5527 4.25979 10.6464 4.35355C10.7402 4.44732 10.8674 4.5 11 4.5C11.1326 4.5 11.2598 4.44732 11.3535 4.35355C11.4473 4.25979 11.5 4.13261 11.5 4V3H12.5C12.6326 3 12.7598 2.94732 12.8535 2.85355C12.9473 2.75979 13 2.63261 13 2.5C13 2.36739 12.9473 2.24021 12.8535 2.14645C12.7598 2.05268 12.6326 2 12.5 2H11.5V1C11.5 0.867392 11.4473 0.740215 11.3535 0.646447C11.2598 0.552678 11.1326 0.5 11 0.5C10.8674 0.5 10.7402 0.552678 10.6464 0.646447C10.5527 0.740215 10.5 0.867392 10.5 1V2H9.49998C9.36737 2 9.24019 2.05268 9.14642 2.14645C9.05266 2.24021 8.99998 2.36739 8.99998 2.5C8.99998 2.63261 9.05266 2.75979 9.14642 2.85355C9.24019 2.94732 9.36737 3 9.49998 3ZM15 5H14.5V4.5C14.5 4.36739 14.4473 4.24021 14.3535 4.14645C14.2598 4.05268 14.1326 4 14 4C13.8674 4 13.7402 4.05268 13.6464 4.14645C13.5527 4.24021 13.5 4.36739 13.5 4.5V5H13C12.8674 5 12.7402 5.05268 12.6464 5.14645C12.5527 5.24021 12.5 5.36739 12.5 5.5C12.5 5.63261 12.5527 5.75979 12.6464 5.85355C12.7402 5.94732 12.8674 6 13 6H13.5V6.5C13.5 6.63261 13.5527 6.75979 13.6464 6.85355C13.7402 6.94732 13.8674 7 14 7C14.1326 7 14.2598 6.94732 14.3535 6.85355C14.4473 6.75979 14.5 6.63261 14.5 6.5V6H15C15.1326 6 15.2598 5.94732 15.3535 5.85355C15.4473 5.75979 15.5 5.63261 15.5 5.5C15.5 5.36739 15.4473 5.24021 15.3535 5.14645C15.2598 5.05268 15.1326 5 15 5Z" fill="#A94E30"/>
  </svg>