<svg xmlns="http://www.w3.org/2000/svg" width="25" height="25" viewBox="0 0 25 25" fill="none">
  <path d="M14.3975 5.35249L21.1475 12.1025C21.2528 12.208 21.312 12.3509 21.312 12.5C21.312 12.6491 21.2528 12.792 21.1475 12.8975L14.3975 19.6475C14.2909 19.7469 14.1498 19.8009 14.0041 19.7984C13.8584 19.7958 13.7193 19.7368 13.6163 19.6337C13.5132 19.5306 13.4542 19.3916 13.4516 19.2459C13.449 19.1002 13.5031 18.9591 13.6025 18.8525L19.3916 13.0625L4.25 13.0625C4.10082 13.0625 3.95774 13.0032 3.85225 12.8977C3.74676 12.7923 3.6875 12.6492 3.6875 12.5C3.6875 12.3508 3.74676 12.2077 3.85225 12.1022C3.95774 11.9968 4.10082 11.9375 4.25 11.9375L19.3916 11.9375L13.6025 6.14749C13.5031 6.04086 13.449 5.89983 13.4516 5.7541C13.4542 5.60837 13.5132 5.46934 13.6163 5.36628C13.7193 5.26322 13.8584 5.20418 14.0041 5.20161C14.1498 5.19904 14.2909 5.25313 14.3975 5.35249Z" fill="#FB7F57"/>
</svg>