<svg xmlns="http://www.w3.org/2000/svg" width="24" height="25" viewBox="0 0 24 25" fill="none">
    <path d="M13.8975 5.35249L20.6475 12.1025C20.7528 12.208 20.812 12.3509 20.812 12.5C20.812 12.6491 20.7528 12.792 20.6475 12.8975L13.8975 19.6475C13.7909 19.7469 13.6498 19.8009 13.5041 19.7984C13.3584 19.7958 13.2193 19.7368 13.1163 19.6337C13.0132 19.5306 12.9542 19.3916 12.9516 19.2459C12.949 19.1002 13.0031 18.9591 13.1025 18.8525L18.8916 13.0625L3.75 13.0625C3.60082 13.0625 3.45774 13.0032 3.35225 12.8977C3.24676 12.7923 3.1875 12.6492 3.1875 12.5C3.1875 12.3508 3.24676 12.2077 3.35225 12.1022C3.45774 11.9968 3.60082 11.9375 3.75 11.9375L18.8916 11.9375L13.1025 6.14749C13.0031 6.04086 12.949 5.89983 12.9516 5.7541C12.9542 5.60837 13.0132 5.46934 13.1163 5.36628C13.2193 5.26322 13.3584 5.20418 13.5041 5.20161C13.6498 5.19904 13.7909 5.25313 13.8975 5.35249Z" fill="#226C67"/>
  </svg>