<svg xmlns="http://www.w3.org/2000/svg" width="28" height="28" viewBox="0 0 28 28" fill="none">
    <path fill-rule="evenodd" clip-rule="evenodd" d="M25.312 9.01248C25.5682 9.28432 25.7683 9.60396 25.9009 9.95316C26.0336 10.3024 26.0961 10.6743 26.085 11.0476C26.0738 11.421 25.9893 11.7885 25.8361 12.1292C25.6829 12.4699 25.464 12.777 25.1921 13.0331L12.1975 25.2787C11.6545 25.7903 10.9321 26.0681 10.1862 26.052C9.44035 26.036 8.73063 25.7275 8.21011 25.193L2.72911 19.5624C2.20302 19.0219 1.91318 18.2945 1.92335 17.5404C1.93353 16.7862 2.24288 16.0669 2.78336 15.5409C3.32384 15.0148 4.05117 14.7249 4.80535 14.7351C5.55952 14.7453 6.27877 15.0546 6.80486 15.5951L10.3337 19.2202L21.2931 8.89348C21.842 8.37624 22.5738 8.09819 23.3276 8.12051C24.0815 8.14283 24.7956 8.46368 25.3129 9.01248" fill="#226C67"/>
    <circle cx="10" cy="6" r="5" fill="#FB7F57"/>
  </svg>