<svg xmlns="http://www.w3.org/2000/svg" width="99" height="99" viewBox="0 0 99 99" fill="none">
    <path d="M26.6845 23.524L30.4369 26.6814C31.0665 27.2034 31.6806 27.7431 32.2943 28.2836L34.1376 29.904C34.7865 30.4801 35.4465 31.0473 36.0865 31.636C36.7245 32.2269 37.3567 32.8227 37.983 33.4235C38.8141 34.2284 39.6521 35.0262 40.4762 35.838L42.924 38.2982C44.5694 39.9247 46.1528 41.6118 47.7551 43.2799L48.9532 44.5343L50.1294 45.8094L52.4841 48.3573L53.0724 48.9945L53.6496 49.642L54.8048 50.9361L57.1194 53.5209L59.9162 56.7513C60.3811 57.2907 60.8532 57.8242 61.3128 58.3682L62.6825 60.0081C63.5925 61.1039 64.5178 62.1874 65.417 63.2923L68.0981 66.6207C71.638 71.0858 75.1041 75.6136 78.3966 80.2668C78.9 80.9638 79.4211 81.6536 79.9479 82.3365C80.4664 83.0256 80.9819 83.7107 81.4944 84.392C82.4779 85.6909 83.2742 86.4251 83.9007 86.7937C84.8122 87.3314 84.67 86.2726 83.4755 84.2767C83.0972 83.646 82.685 82.9967 82.2587 82.3495C82.043 82.0276 81.8265 81.7044 81.611 81.3828C81.3854 81.0682 81.1609 80.7551 80.9396 80.4466C79.9143 79.0301 78.8897 77.6147 77.8659 76.2003C76.8215 74.8009 75.7854 73.3965 74.7577 71.9872C74.25 71.2777 73.7146 70.5893 73.1939 69.8897L71.6298 67.7923C70.6027 66.3817 69.5306 65.0062 68.4836 63.6095C67.9026 62.841 67.3224 62.0464 66.7229 61.2756C66.1154 60.5114 65.5002 59.7615 64.8754 59.0624C62.8994 56.8129 60.9055 54.5696 58.9482 52.2918L55.9462 48.9335C55.4427 48.3769 54.946 47.8143 54.4333 47.2667L52.8821 45.6378L50.5751 43.2163C49.7965 42.4169 49.0175 41.6169 48.2379 40.8165L45.8964 38.4186C45.0992 37.636 44.3024 36.8538 43.5059 36.072C42.7915 35.3793 42.0861 34.6777 41.3638 33.9935L39.1858 31.9533L37.0052 29.9168L34.7869 27.9216L32.5685 25.9274L30.3129 23.9756L28.0568 22.0251C27.3024 21.3776 26.5217 20.7612 25.7558 20.1276C25.1419 19.6253 24.5312 19.1382 23.9237 18.6665C23.6183 18.4333 23.3158 18.2023 23.016 17.9735C22.7104 17.7519 22.4032 17.5382 22.0991 17.3274C20.8816 16.4848 19.6845 15.721 18.5253 15.0464C17.4648 14.4185 17.3172 14.7356 18.2843 15.7877C18.4564 15.9726 18.6294 16.1586 18.8035 16.3456C18.98 16.5293 19.1682 16.7005 19.3519 16.879L20.4748 17.9417C21.2342 18.6457 22.0015 19.357 22.7668 20.0665C24.0272 21.2294 25.377 22.3562 26.6971 23.4859C26.693 23.4983 26.6893 23.5097 26.6845 23.524Z" fill="#CEE9C7"/>
    <path d="M36.374 40.939C34.9819 38.0424 33.4372 35.2216 31.7466 32.4885C31.2904 31.771 30.8335 31.0524 30.3759 30.3327C29.901 29.626 29.4315 28.9167 28.9737 28.202C26.9794 25.182 24.8315 22.273 22.5871 19.4544C20.3392 16.6376 18.0062 13.901 15.6357 11.206L14.1362 13.1433C14.5326 13.3543 14.9435 13.537 15.3484 13.7315L15.9577 14.0193C16.059 14.0679 16.1617 14.1136 16.2617 14.1647C16.3702 14.1991 16.4718 14.2471 16.5771 14.2877C16.7849 14.3746 16.9977 14.4515 17.2014 14.5465L17.8115 14.833C18.2174 15.0259 18.6178 15.2295 19.0213 15.4269C23.9588 17.8791 28.8526 20.419 33.7679 22.9174C36.2211 24.1753 38.6857 25.4109 41.1495 26.6483L48.5401 30.3616C50.0263 31.1087 51.5571 31.8037 53.0541 32.4844C54.4884 33.1352 55.4968 33.3991 56.189 33.4316C57.1964 33.4794 56.5708 32.6653 54.636 31.5464C53.4115 30.8389 52.0402 30.1305 50.7305 29.4845C47.7153 27.9961 44.7192 26.4799 41.7421 24.9358C40.2532 24.1633 38.769 23.3827 37.2894 22.594C35.8066 21.8114 34.3278 21.0208 32.8531 20.2224C31.2252 19.3409 29.544 18.3983 27.9107 17.6381C23.6035 15.6115 19.3426 13.4376 15.209 11.0399C14.9825 10.9086 14.7168 10.8621 14.4592 10.9085C14.2015 10.955 13.9688 11.0915 13.8025 11.2937C13.6362 11.4958 13.5471 11.7505 13.5512 12.0123C13.5552 12.274 13.6522 12.5258 13.8247 12.7227L13.8684 12.772C14.5246 13.5182 15.1845 14.2597 15.8482 14.9966C18.6945 18.1745 21.4015 21.4929 23.9812 24.8735C26.2916 27.8748 28.4238 31.0091 30.3667 34.2604C32.2972 37.5187 34.0048 40.9039 35.4777 44.393C36.0476 45.7942 36.6572 47.1334 37.2303 48.4288C37.3778 48.751 37.5275 49.0686 37.6794 49.3817C37.7573 49.5377 37.8346 49.6928 37.9116 49.8468C37.9855 50.0022 38.0589 50.1566 38.1319 50.31C38.4215 50.9248 38.7422 51.513 39.0419 52.0892C39.5974 53.1475 39.9115 52.9782 39.7461 51.5883C39.7155 51.3424 39.6849 51.0951 39.654 50.8464C39.6173 50.5993 39.555 50.3589 39.5052 50.1132C39.4514 49.8686 39.3974 49.623 39.3432 49.3765C39.281 49.1323 39.2185 48.8871 39.1501 48.643C39.0114 48.155 38.8721 47.6651 38.7322 47.1732C38.5893 46.6824 38.4488 46.1893 38.2732 45.7086C37.9972 44.9139 37.6934 44.1169 37.3771 43.3219C37.0326 42.538 36.6869 41.7513 36.3433 40.9693L36.374 40.939Z" fill="#CEE9C7"/>
  </svg>