<svg width="99" height="99" viewBox="0 0 99 99" fill="none" xmlns="http://www.w3.org/2000/svg">
    <path d="M72.3155 23.524L68.5631 26.6814C67.9335 27.2034 67.3194 27.7431 66.7057 28.2836L64.8624 29.904C64.2135 30.4801 63.5535 31.0473 62.9135 31.636C62.2755 32.2269 61.6433 32.8227 61.017 33.4235C60.1859 34.2284 59.3479 35.0262 58.5238 35.838L56.076 38.2982C54.4306 39.9247 52.8472 41.6118 51.2449 43.2799L50.0468 44.5343L48.8706 45.8094L46.5159 48.3573L45.9276 48.9945L45.3504 49.642L44.1952 50.9361L41.8806 53.5209L39.0838 56.7513C38.6189 57.2907 38.1468 57.8242 37.6872 58.3682L36.3175 60.0081C35.4075 61.1039 34.4822 62.1874 33.583 63.2923L30.9019 66.6207C27.362 71.0858 23.8959 75.6136 20.6034 80.2668C20.1 80.9638 19.5789 81.6536 19.0521 82.3365C18.5336 83.0256 18.0181 83.7107 17.5056 84.392C16.5221 85.6909 15.7258 86.4251 15.0993 86.7937C14.1878 87.3314 14.33 86.2726 15.5245 84.2767C15.9028 83.646 16.315 82.9967 16.7413 82.3495C16.957 82.0276 17.1735 81.7044 17.389 81.3828C17.6146 81.0682 17.8391 80.7551 18.0604 80.4466C19.0857 79.0301 20.1103 77.6147 21.1341 76.2003C22.1785 74.8009 23.2146 73.3965 24.2423 71.9872C24.75 71.2777 25.2854 70.5893 25.8061 69.8897L27.3702 67.7923C28.3973 66.3817 29.4694 65.0062 30.5164 63.6095C31.0974 62.841 31.6776 62.0464 32.2771 61.2756C32.8846 60.5114 33.4998 59.7615 34.1246 59.0624C36.1006 56.8129 38.0945 54.5696 40.0518 52.2918L43.0538 48.9335C43.5573 48.3769 44.054 47.8143 44.5667 47.2667L46.1179 45.6378L48.4249 43.2163C49.2035 42.4169 49.9825 41.6169 50.7621 40.8165L53.1036 38.4186C53.9008 37.636 54.6976 36.8538 55.4941 36.072C56.2085 35.3793 56.9139 34.6777 57.6362 33.9935L59.8142 31.9533L61.9948 29.9168L64.2131 27.9216L66.4315 25.9274L68.6871 23.9756L70.9432 22.0251C71.6976 21.3776 72.4783 20.7612 73.2442 20.1276C73.8581 19.6253 74.4688 19.1382 75.0763 18.6665C75.3817 18.4333 75.6842 18.2023 75.984 17.9735C76.2896 17.7519 76.5968 17.5382 76.9009 17.3274C78.1184 16.4848 79.3155 15.721 80.4747 15.0464C81.5352 14.4185 81.6828 14.7356 80.7157 15.7877C80.5436 15.9726 80.3706 16.1586 80.1965 16.3456C80.02 16.5293 79.8318 16.7005 79.6481 16.879L78.5252 17.9417C77.7658 18.6457 76.9985 19.357 76.2332 20.0665C74.9728 21.2294 73.623 22.3562 72.3029 23.4859C72.307 23.4983 72.3107 23.5097 72.3155 23.524Z" fill="#CEE9C7"/>
    <path d="M62.626 40.939C64.0181 38.0424 65.5628 35.2216 67.2534 32.4885C67.7096 31.771 68.1665 31.0524 68.6241 30.3327C69.099 29.626 69.5685 28.9167 70.0263 28.202C72.0206 25.182 74.1685 22.273 76.4129 19.4544C78.6608 16.6376 80.9938 13.901 83.3643 11.206L84.8638 13.1433C84.4674 13.3543 84.0565 13.537 83.6516 13.7315L83.0423 14.0193C82.941 14.0679 82.8383 14.1136 82.7383 14.1647C82.6298 14.1991 82.5282 14.2471 82.4229 14.2877C82.2151 14.3746 82.0023 14.4515 81.7986 14.5465L81.1885 14.833C80.7826 15.0259 80.3822 15.2295 79.9787 15.4269C75.0412 17.8791 70.1474 20.419 65.2321 22.9174C62.7789 24.1753 60.3143 25.4109 57.8505 26.6483L50.4599 30.3616C48.9737 31.1087 47.4429 31.8037 45.9459 32.4844C44.5116 33.1352 43.5032 33.3991 42.811 33.4316C41.8036 33.4794 42.4292 32.6653 44.364 31.5464C45.5885 30.8389 46.9598 30.1305 48.2695 29.4845C51.2847 27.9961 54.2808 26.4799 57.2579 24.9358C58.7468 24.1633 60.231 23.3827 61.7106 22.594C63.1934 21.8114 64.6722 21.0208 66.1469 20.2224C67.7748 19.3409 69.456 18.3983 71.0893 17.6381C75.3965 15.6115 79.6574 13.4376 83.791 11.0399C84.0175 10.9086 84.2832 10.8621 84.5408 10.9085C84.7985 10.955 85.0312 11.0915 85.1975 11.2937C85.3638 11.4958 85.4529 11.7505 85.4488 12.0123C85.4448 12.274 85.3478 12.5258 85.1753 12.7227L85.1316 12.772C84.4754 13.5182 83.8155 14.2597 83.1518 14.9966C80.3055 18.1745 77.5985 21.4929 75.0188 24.8735C72.7084 27.8748 70.5762 31.0091 68.6333 34.2604C66.7028 37.5187 64.9952 40.9039 63.5223 44.393C62.9524 45.7942 62.3428 47.1334 61.7697 48.4288C61.6222 48.751 61.4725 49.0686 61.3206 49.3817C61.2427 49.5377 61.1654 49.6928 61.0884 49.8468C61.0145 50.0022 60.9411 50.1566 60.8681 50.31C60.5785 50.9248 60.2578 51.513 59.9581 52.0892C59.4026 53.1475 59.0885 52.9782 59.2539 51.5883C59.2845 51.3424 59.3151 51.0951 59.346 50.8464C59.3827 50.5993 59.445 50.3589 59.4948 50.1132C59.5486 49.8686 59.6026 49.623 59.6568 49.3765C59.719 49.1323 59.7815 48.8871 59.8499 48.643C59.9886 48.155 60.1279 47.6651 60.2678 47.1732C60.4107 46.6824 60.5512 46.1893 60.7268 45.7086C61.0028 44.9139 61.3066 44.1169 61.6229 43.3219C61.9674 42.538 62.3131 41.7513 62.6567 40.9693L62.626 40.939Z" fill="#CEE9C7"/>
    </svg>
    