<svg width="16" height="16" viewBox="0 0 16 16" fill="none" xmlns="http://www.w3.org/2000/svg">
    <rect x="0.5" y="0.5" width="15" height="15" rx="7.5" fill="#2D9CDB" stroke="white"/>
    <path d="M5.72451 9.08821H8.92451V8.28821H5.72451V9.08821ZM5.72451 7.88821H10.5245V7.08821H5.72451V7.88821ZM5.72451 6.68821H10.5245V5.88821H5.72451V6.68821ZM4.12451 12.2882V5.08821C4.12451 4.86821 4.20291 4.67981 4.35971 4.52301C4.51625 4.36647 4.70451 4.28821 4.92451 4.28821H11.3245C11.5445 4.28821 11.7329 4.36647 11.8897 4.52301C12.0462 4.67981 12.1245 4.86821 12.1245 5.08821V9.88821C12.1245 10.1082 12.0462 10.2966 11.8897 10.4534C11.7329 10.6099 11.5445 10.6882 11.3245 10.6882H5.72451L4.12451 12.2882ZM4.92451 10.3582L5.39451 9.88821H11.3245V5.08821H4.92451V10.3582Z" fill="white"/>
    </svg>
    